<svg width="999" height="189" viewBox="0 0 999 189" fill="none" xmlns="http://www.w3.org/2000/svg">
<rect x="72" y="81" width="56" height="56" rx="28" stroke="white" stroke-width="4"/>
<path d="M108.337 104.415C108.545 104.624 108.65 104.876 108.65 105.174C108.65 105.472 108.545 105.725 108.337 105.933L100.257 114.013L98.7388 115.531C98.5305 115.74 98.2775 115.844 97.9799 115.844C97.6823 115.844 97.4293 115.74 97.221 115.531L95.7031 114.013L91.6629 109.973C91.4546 109.765 91.3504 109.512 91.3504 109.214C91.3504 108.917 91.4546 108.664 91.6629 108.455L93.1808 106.937C93.3891 106.729 93.6421 106.625 93.9397 106.625C94.2374 106.625 94.4903 106.729 94.6987 106.937L97.9799 110.23L105.301 102.897C105.51 102.689 105.763 102.585 106.06 102.585C106.358 102.585 106.611 102.689 106.819 102.897L108.337 104.415Z" fill="white"/>
<rect x="273" y="81" width="56" height="56" rx="28" stroke="white" stroke-width="4"/>
<path d="M309.337 104.415C309.545 104.624 309.65 104.876 309.65 105.174C309.65 105.472 309.545 105.725 309.337 105.933L301.257 114.013L299.739 115.531C299.531 115.74 299.278 115.844 298.98 115.844C298.682 115.844 298.429 115.74 298.221 115.531L296.703 114.013L292.663 109.973C292.455 109.765 292.35 109.512 292.35 109.214C292.35 108.917 292.455 108.664 292.663 108.455L294.181 106.937C294.389 106.729 294.642 106.625 294.94 106.625C295.237 106.625 295.49 106.729 295.699 106.937L298.98 110.23L306.301 102.897C306.51 102.689 306.763 102.585 307.06 102.585C307.358 102.585 307.611 102.689 307.819 102.897L309.337 104.415Z" fill="white"/>
<path d="M79.16 24H85.02C86.3533 24 87.4 24.3267 88.16 24.98C88.92 25.6333 89.3 26.4267 89.3 27.36C89.3 28.0933 89.1 28.7533 88.7 29.34C88.3 29.9267 87.7533 30.3667 87.06 30.66C87.8333 30.94 88.4467 31.3867 88.9 32C89.3667 32.6133 89.6 33.2867 89.6 34.02C89.6 35.1533 89.2067 36.1 88.42 36.86C87.6467 37.62 86.6267 38 85.36 38H79.16V24ZM85.06 25.3H80.6V30.12H84.98C85.8467 30.12 86.54 29.88 87.06 29.4C87.58 28.9067 87.84 28.2867 87.84 27.54C87.84 26.9133 87.6 26.3867 87.12 25.96C86.64 25.52 85.9533 25.3 85.06 25.3ZM85.24 31.4H80.6V36.7H85.4C86.2667 36.7 86.94 36.4333 87.42 35.9C87.9 35.3667 88.14 34.6867 88.14 33.86C88.14 33.1933 87.8733 32.62 87.34 32.14C86.8067 31.6467 86.1067 31.4 85.24 31.4ZM92.7472 28.06H94.0072V30.42C94.6072 28.7933 95.6272 27.98 97.0672 27.98C97.3072 27.98 97.6005 28.0067 97.9472 28.06L97.8272 29.32C97.5472 29.28 97.3005 29.26 97.0872 29.26C96.1672 29.26 95.4339 29.6467 94.8872 30.42C94.3405 31.18 94.0672 32.22 94.0672 33.54V38H92.7472V28.06ZM100.109 23.64C100.309 23.44 100.549 23.34 100.829 23.34C101.109 23.34 101.349 23.44 101.549 23.64C101.749 23.84 101.849 24.08 101.849 24.36C101.849 24.64 101.749 24.88 101.549 25.08C101.362 25.2667 101.122 25.36 100.829 25.36C100.549 25.36 100.309 25.2667 100.109 25.08C99.9224 24.88 99.8291 24.64 99.8291 24.36C99.8291 24.08 99.9224 23.84 100.109 23.64ZM100.169 28.06H101.489V38H100.169V28.06ZM109.367 38.24C107.861 38.24 106.661 37.7733 105.767 36.84C104.874 35.9067 104.427 34.6333 104.427 33.02C104.427 31.5 104.874 30.2533 105.767 29.28C106.674 28.3067 107.807 27.82 109.167 27.82C110.434 27.82 111.467 28.2533 112.267 29.12C113.081 29.9733 113.487 31.1067 113.487 32.52C113.487 32.8533 113.467 33.12 113.427 33.32H105.767C105.821 34.5067 106.174 35.4333 106.827 36.1C107.481 36.7667 108.334 37.1 109.387 37.1C110.681 37.1 111.734 36.4533 112.547 35.16L113.467 35.92C113.041 36.64 112.467 37.2067 111.747 37.62C111.041 38.0333 110.247 38.24 109.367 38.24ZM109.167 28.94C108.274 28.94 107.521 29.24 106.907 29.84C106.307 30.4267 105.941 31.2267 105.807 32.24H112.167C112.141 31.1867 111.841 30.3733 111.267 29.8C110.707 29.2267 110.007 28.94 109.167 28.94ZM116.938 38V29.22H115.178V28.06H116.938V26.58C116.938 25.62 117.191 24.8133 117.698 24.16C118.218 23.4933 119.025 23.16 120.118 23.16C120.598 23.16 121.118 23.2533 121.678 23.44L121.418 24.56C120.978 24.4133 120.565 24.34 120.178 24.34C118.911 24.34 118.278 25.1133 118.278 26.66V28.06H121.298V29.22H118.278V38H116.938Z" fill="#ABE8E8"/>
<path d="M270.16 24H274.92C277.08 24 278.8 24.6467 280.08 25.94C281.36 27.22 282 28.8067 282 30.7C282 32.7667 281.36 34.5 280.08 35.9C278.8 37.3 277.08 38 274.92 38H270.16V24ZM274.92 25.34H271.6V36.66H274.92C276.64 36.66 278.007 36.0933 279.02 34.96C280.047 33.8133 280.56 32.3933 280.56 30.7C280.56 29.18 280.047 27.9067 279.02 26.88C278.007 25.8533 276.64 25.34 274.92 25.34ZM289.195 38.24C287.689 38.24 286.489 37.7733 285.595 36.84C284.702 35.9067 284.255 34.6333 284.255 33.02C284.255 31.5 284.702 30.2533 285.595 29.28C286.502 28.3067 287.635 27.82 288.995 27.82C290.262 27.82 291.295 28.2533 292.095 29.12C292.909 29.9733 293.315 31.1067 293.315 32.52C293.315 32.8533 293.295 33.12 293.255 33.32H285.595C285.649 34.5067 286.002 35.4333 286.655 36.1C287.309 36.7667 288.162 37.1 289.215 37.1C290.509 37.1 291.562 36.4533 292.375 35.16L293.295 35.92C292.869 36.64 292.295 37.2067 291.575 37.62C290.869 38.0333 290.075 38.24 289.195 38.24ZM288.995 28.94C288.102 28.94 287.349 29.24 286.735 29.84C286.135 30.4267 285.769 31.2267 285.635 32.24H291.995C291.969 31.1867 291.669 30.3733 291.095 29.8C290.535 29.2267 289.835 28.94 288.995 28.94ZM303.185 35.18C303.185 36.0467 302.858 36.7733 302.205 37.36C301.565 37.9467 300.652 38.24 299.465 38.24C298.505 38.24 297.652 38.08 296.905 37.76C296.172 37.44 295.632 37.1 295.285 36.74L296.045 35.74C296.352 36.06 296.798 36.3667 297.385 36.66C297.985 36.94 298.638 37.08 299.345 37.08C300.212 37.08 300.852 36.9133 301.265 36.58C301.678 36.2467 301.885 35.8133 301.885 35.28C301.885 34.8133 301.725 34.4667 301.405 34.24C301.085 34 300.605 33.8067 299.965 33.66L298.505 33.34C296.665 32.94 295.745 32.02 295.745 30.58C295.745 29.8733 296.032 29.24 296.605 28.68C297.178 28.1067 298.032 27.82 299.165 27.82C300.698 27.82 301.985 28.3267 303.025 29.34L302.225 30.36C301.305 29.44 300.272 28.98 299.125 28.98C298.365 28.98 297.825 29.14 297.505 29.46C297.185 29.78 297.025 30.1333 297.025 30.52C297.025 30.9867 297.165 31.34 297.445 31.58C297.738 31.82 298.178 32.0067 298.765 32.14L300.365 32.5C301.285 32.7 301.985 33.0067 302.465 33.42C302.945 33.8333 303.185 34.42 303.185 35.18ZM306.031 23.64C306.231 23.44 306.471 23.34 306.751 23.34C307.031 23.34 307.271 23.44 307.471 23.64C307.671 23.84 307.771 24.08 307.771 24.36C307.771 24.64 307.671 24.88 307.471 25.08C307.284 25.2667 307.044 25.36 306.751 25.36C306.471 25.36 306.231 25.2667 306.031 25.08C305.844 24.88 305.751 24.64 305.751 24.36C305.751 24.08 305.844 23.84 306.031 23.64ZM306.091 28.06H307.411V38H306.091V28.06ZM314.989 42.6C313.522 42.6 312.322 42.3667 311.389 41.9C310.456 41.4467 309.989 40.7533 309.989 39.82C309.989 38.7667 310.642 38.02 311.949 37.58C311.562 37.4467 311.262 37.24 311.049 36.96C310.836 36.6667 310.729 36.34 310.729 35.98C310.729 35.1933 311.209 34.5933 312.169 34.18C311.222 33.4733 310.749 32.56 310.749 31.44C310.749 30.4133 311.142 29.5533 311.929 28.86C312.729 28.1667 313.696 27.82 314.829 27.82C316.029 27.82 317.029 28.2 317.829 28.96C318.389 28.28 319.242 27.94 320.389 27.94V29.16C319.496 29.16 318.836 29.3467 318.409 29.72C318.769 30.2533 318.949 30.8267 318.949 31.44C318.949 32.4533 318.549 33.3067 317.749 34C316.949 34.68 315.976 35.02 314.829 35.02C314.189 35.02 313.576 34.8933 312.989 34.64C312.336 34.8667 312.009 35.22 312.009 35.7C312.009 36.3267 312.436 36.64 313.289 36.64H316.929C318.076 36.64 318.936 36.86 319.509 37.3C320.096 37.7267 320.389 38.3467 320.389 39.16C320.389 40.2267 319.876 41.0667 318.849 41.68C317.822 42.2933 316.536 42.6 314.989 42.6ZM316.789 29.6C316.256 29.1333 315.602 28.9 314.829 28.9C314.056 28.9 313.402 29.1333 312.869 29.6C312.349 30.0533 312.089 30.6667 312.089 31.44C312.089 32.2133 312.349 32.8267 312.869 33.28C313.402 33.7333 314.056 33.96 314.829 33.96C315.602 33.96 316.256 33.7333 316.789 33.28C317.336 32.8133 317.609 32.2 317.609 31.44C317.609 30.68 317.336 30.0667 316.789 29.6ZM311.249 39.62C311.249 40.9133 312.516 41.56 315.049 41.56C316.236 41.56 317.209 41.36 317.969 40.96C318.729 40.5733 319.109 40.0333 319.109 39.34C319.109 38.3667 318.409 37.88 317.009 37.88H314.249C313.262 37.88 312.516 38.0467 312.009 38.38C311.502 38.7133 311.249 39.1267 311.249 39.62ZM322.673 28.06H323.933V29.98C324.626 28.54 325.786 27.82 327.413 27.82C328.626 27.82 329.56 28.2133 330.213 29C330.866 29.7867 331.193 30.7067 331.193 31.76V38H329.853V32.06C329.853 31.22 329.646 30.5133 329.233 29.94C328.833 29.3533 328.146 29.06 327.173 29.06C326.146 29.06 325.36 29.4333 324.813 30.18C324.266 30.9133 323.993 31.8733 323.993 33.06V38H322.673V28.06Z" fill="#ABE8E8"/>
<path d="M474.22 34.12C474.22 35.2133 473.82 36.1733 473.02 37C472.22 37.8267 471.053 38.24 469.52 38.24C468.213 38.24 467.067 37.9933 466.08 37.5C465.107 36.9933 464.373 36.4467 463.88 35.86L464.82 34.76C465.273 35.2933 465.9 35.7933 466.7 36.26C467.5 36.7267 468.44 36.96 469.52 36.96C470.68 36.96 471.513 36.6733 472.02 36.1C472.54 35.5267 472.8 34.8933 472.8 34.2C472.8 33.4933 472.573 32.96 472.12 32.6C471.667 32.2267 470.96 31.9133 470 31.66L468.04 31.14C467.667 31.0467 467.333 30.9467 467.04 30.84C466.747 30.7333 466.427 30.58 466.08 30.38C465.747 30.18 465.467 29.96 465.24 29.72C465.027 29.4667 464.84 29.1467 464.68 28.76C464.533 28.3733 464.46 27.94 464.46 27.46C464.46 26.46 464.847 25.5933 465.62 24.86C466.393 24.1267 467.52 23.76 469 23.76C470.08 23.76 471.04 23.9667 471.88 24.38C472.72 24.7933 473.413 25.3 473.96 25.9L473 26.98C471.867 25.7 470.527 25.06 468.98 25.06C467.9 25.06 467.107 25.3 466.6 25.78C466.107 26.2467 465.86 26.78 465.86 27.38C465.86 28.1 466.08 28.64 466.52 29C466.96 29.3467 467.593 29.6267 468.42 29.84L470.6 30.4C471.787 30.6933 472.687 31.1333 473.3 31.72C473.913 32.2933 474.22 33.0933 474.22 34.12ZM477.164 23.64C477.364 23.44 477.604 23.34 477.884 23.34C478.164 23.34 478.404 23.44 478.604 23.64C478.804 23.84 478.904 24.08 478.904 24.36C478.904 24.64 478.804 24.88 478.604 25.08C478.417 25.2667 478.177 25.36 477.884 25.36C477.604 25.36 477.364 25.2667 477.164 25.08C476.977 24.88 476.884 24.64 476.884 24.36C476.884 24.08 476.977 23.84 477.164 23.64ZM477.224 28.06H478.544V38H477.224V28.06ZM486.122 42.6C484.655 42.6 483.455 42.3667 482.522 41.9C481.589 41.4467 481.122 40.7533 481.122 39.82C481.122 38.7667 481.775 38.02 483.082 37.58C482.695 37.4467 482.395 37.24 482.182 36.96C481.969 36.6667 481.862 36.34 481.862 35.98C481.862 35.1933 482.342 34.5933 483.302 34.18C482.355 33.4733 481.882 32.56 481.882 31.44C481.882 30.4133 482.275 29.5533 483.062 28.86C483.862 28.1667 484.829 27.82 485.962 27.82C487.162 27.82 488.162 28.2 488.962 28.96C489.522 28.28 490.375 27.94 491.522 27.94V29.16C490.629 29.16 489.969 29.3467 489.542 29.72C489.902 30.2533 490.082 30.8267 490.082 31.44C490.082 32.4533 489.682 33.3067 488.882 34C488.082 34.68 487.109 35.02 485.962 35.02C485.322 35.02 484.709 34.8933 484.122 34.64C483.469 34.8667 483.142 35.22 483.142 35.7C483.142 36.3267 483.569 36.64 484.422 36.64H488.062C489.209 36.64 490.069 36.86 490.642 37.3C491.229 37.7267 491.522 38.3467 491.522 39.16C491.522 40.2267 491.009 41.0667 489.982 41.68C488.955 42.2933 487.669 42.6 486.122 42.6ZM487.922 29.6C487.389 29.1333 486.735 28.9 485.962 28.9C485.189 28.9 484.535 29.1333 484.002 29.6C483.482 30.0533 483.222 30.6667 483.222 31.44C483.222 32.2133 483.482 32.8267 484.002 33.28C484.535 33.7333 485.189 33.96 485.962 33.96C486.735 33.96 487.389 33.7333 487.922 33.28C488.469 32.8133 488.742 32.2 488.742 31.44C488.742 30.68 488.469 30.0667 487.922 29.6ZM482.382 39.62C482.382 40.9133 483.649 41.56 486.182 41.56C487.369 41.56 488.342 41.36 489.102 40.96C489.862 40.5733 490.242 40.0333 490.242 39.34C490.242 38.3667 489.542 37.88 488.142 37.88H485.382C484.395 37.88 483.649 38.0467 483.142 38.38C482.635 38.7133 482.382 39.1267 482.382 39.62ZM493.806 28.06H495.066V29.98C495.759 28.54 496.919 27.82 498.546 27.82C499.759 27.82 500.692 28.2133 501.346 29C501.999 29.7867 502.326 30.7067 502.326 31.76V38H500.986V32.06C500.986 31.22 500.779 30.5133 500.366 29.94C499.966 29.3533 499.279 29.06 498.306 29.06C497.279 29.06 496.492 29.4333 495.946 30.18C495.399 30.9133 495.126 31.8733 495.126 33.06V38H493.806V28.06ZM517.482 38.24C515.522 38.24 513.909 37.54 512.642 36.14C511.389 34.74 510.762 33.0267 510.762 31C510.762 28.9733 511.389 27.26 512.642 25.86C513.909 24.46 515.522 23.76 517.482 23.76C519.455 23.76 521.069 24.46 522.322 25.86C523.589 27.26 524.222 28.9733 524.222 31C524.222 33.0267 523.589 34.74 522.322 36.14C521.069 37.54 519.455 38.24 517.482 38.24ZM513.722 35.18C514.722 36.3267 515.975 36.9 517.482 36.9C518.989 36.9 520.242 36.3267 521.242 35.18C522.255 34.0333 522.762 32.64 522.762 31C522.762 29.36 522.255 27.9667 521.242 26.82C520.242 25.6733 518.989 25.1 517.482 25.1C515.975 25.1 514.722 25.6733 513.722 26.82C512.722 27.9667 512.222 29.36 512.222 31C512.222 32.64 512.722 34.0333 513.722 35.18ZM527.762 38V29.22H526.002V28.06H527.762V26.58C527.762 25.62 528.016 24.8133 528.522 24.16C529.042 23.4933 529.849 23.16 530.942 23.16C531.422 23.16 531.942 23.2533 532.502 23.44L532.242 24.56C531.802 24.4133 531.389 24.34 531.002 24.34C529.736 24.34 529.102 25.1133 529.102 26.66V28.06H532.122V29.22H529.102V38H527.762ZM534.833 38V29.22H533.073V28.06H534.833V26.58C534.833 25.62 535.086 24.8133 535.593 24.16C536.113 23.4933 536.919 23.16 538.013 23.16C538.493 23.16 539.013 23.2533 539.573 23.44L539.313 24.56C538.873 24.4133 538.459 24.34 538.073 24.34C536.806 24.34 536.173 25.1133 536.173 26.66V28.06H539.193V29.22H536.173V38H534.833Z" fill="#ABE8E8"/>
<path d="M638.16 24H642.92C645.08 24 646.8 24.6467 648.08 25.94C649.36 27.22 650 28.8067 650 30.7C650 32.7667 649.36 34.5 648.08 35.9C646.8 37.3 645.08 38 642.92 38H638.16V24ZM642.92 25.34H639.6V36.66H642.92C644.64 36.66 646.007 36.0933 647.02 34.96C648.047 33.8133 648.56 32.3933 648.56 30.7C648.56 29.18 648.047 27.9067 647.02 26.88C646.007 25.8533 644.64 25.34 642.92 25.34ZM657.195 38.24C655.689 38.24 654.489 37.7733 653.595 36.84C652.702 35.9067 652.255 34.6333 652.255 33.02C652.255 31.5 652.702 30.2533 653.595 29.28C654.502 28.3067 655.635 27.82 656.995 27.82C658.262 27.82 659.295 28.2533 660.095 29.12C660.909 29.9733 661.315 31.1067 661.315 32.52C661.315 32.8533 661.295 33.12 661.255 33.32H653.595C653.649 34.5067 654.002 35.4333 654.655 36.1C655.309 36.7667 656.162 37.1 657.215 37.1C658.509 37.1 659.562 36.4533 660.375 35.16L661.295 35.92C660.869 36.64 660.295 37.2067 659.575 37.62C658.869 38.0333 658.075 38.24 657.195 38.24ZM656.995 28.94C656.102 28.94 655.349 29.24 654.735 29.84C654.135 30.4267 653.769 31.2267 653.635 32.24H659.995C659.969 31.1867 659.669 30.3733 659.095 29.8C658.535 29.2267 657.835 28.94 656.995 28.94ZM662.928 28.06H664.408L667.688 36.5L671.008 28.06H672.388L668.348 38H666.968L662.928 28.06ZM678.816 38.24C677.31 38.24 676.11 37.7733 675.216 36.84C674.323 35.9067 673.876 34.6333 673.876 33.02C673.876 31.5 674.323 30.2533 675.216 29.28C676.123 28.3067 677.256 27.82 678.616 27.82C679.883 27.82 680.916 28.2533 681.716 29.12C682.53 29.9733 682.936 31.1067 682.936 32.52C682.936 32.8533 682.916 33.12 682.876 33.32H675.216C675.27 34.5067 675.623 35.4333 676.276 36.1C676.93 36.7667 677.783 37.1 678.836 37.1C680.13 37.1 681.183 36.4533 681.996 35.16L682.916 35.92C682.49 36.64 681.916 37.2067 681.196 37.62C680.49 38.0333 679.696 38.24 678.816 38.24ZM678.616 28.94C677.723 28.94 676.97 29.24 676.356 29.84C675.756 30.4267 675.39 31.2267 675.256 32.24H681.616C681.59 31.1867 681.29 30.3733 680.716 29.8C680.156 29.2267 679.456 28.94 678.616 28.94ZM685.966 23.4H687.286V38H685.966V23.4ZM691.604 29.28C692.537 28.3067 693.724 27.82 695.164 27.82C696.604 27.82 697.784 28.3067 698.704 29.28C699.637 30.2533 700.104 31.5 700.104 33.02C700.104 34.5533 699.637 35.8067 698.704 36.78C697.784 37.7533 696.604 38.24 695.164 38.24C693.724 38.24 692.537 37.7533 691.604 36.78C690.684 35.8067 690.224 34.5533 690.224 33.02C690.224 31.5 690.684 30.2533 691.604 29.28ZM697.744 30.14C697.064 29.38 696.204 29 695.164 29C694.124 29 693.264 29.38 692.584 30.14C691.917 30.8867 691.584 31.8467 691.584 33.02C691.584 34.1933 691.917 35.16 692.584 35.92C693.264 36.68 694.124 37.06 695.164 37.06C696.204 37.06 697.064 36.68 697.744 35.92C698.424 35.16 698.764 34.1933 698.764 33.02C698.764 31.86 698.424 30.9 697.744 30.14ZM707.996 27.82C709.37 27.82 710.463 28.3 711.276 29.26C712.103 30.22 712.516 31.4533 712.516 32.96C712.516 34.5067 712.103 35.7733 711.276 36.76C710.45 37.7467 709.35 38.24 707.976 38.24C706.363 38.24 705.156 37.52 704.356 36.08V42.36H703.036V28.06H704.296V30.12C705.056 28.5867 706.29 27.82 707.996 27.82ZM707.796 29.02C706.743 29.02 705.903 29.4 705.276 30.16C704.65 30.92 704.336 31.88 704.336 33.04C704.336 34.16 704.65 35.1133 705.276 35.9C705.903 36.6733 706.736 37.06 707.776 37.06C708.816 37.06 709.636 36.6867 710.236 35.94C710.85 35.18 711.156 34.2067 711.156 33.02C711.156 31.86 710.856 30.9067 710.256 30.16C709.656 29.4 708.836 29.02 707.796 29.02ZM723.438 38H722.118V32.06C722.118 31.2333 721.931 30.5267 721.558 29.94C721.198 29.3533 720.578 29.06 719.698 29.06C718.751 29.06 718.031 29.4333 717.538 30.18C717.044 30.9267 716.798 31.8867 716.798 33.06V38H715.478V28.06H716.738V29.84C717.418 28.4933 718.484 27.82 719.938 27.82C720.778 27.82 721.471 28.0467 722.018 28.5C722.578 28.9533 722.971 29.54 723.198 30.26C723.824 28.6333 724.951 27.82 726.578 27.82C727.698 27.82 728.558 28.2133 729.158 29C729.771 29.7733 730.078 30.6867 730.078 31.74V38H728.758V32.06C728.758 31.2333 728.571 30.5267 728.198 29.94C727.824 29.3533 727.204 29.06 726.338 29.06C725.391 29.06 724.671 29.4333 724.178 30.18C723.684 30.9267 723.438 31.8867 723.438 33.06V38ZM737.801 38.24C736.294 38.24 735.094 37.7733 734.201 36.84C733.307 35.9067 732.861 34.6333 732.861 33.02C732.861 31.5 733.307 30.2533 734.201 29.28C735.107 28.3067 736.241 27.82 737.601 27.82C738.867 27.82 739.901 28.2533 740.701 29.12C741.514 29.9733 741.921 31.1067 741.921 32.52C741.921 32.8533 741.901 33.12 741.861 33.32H734.201C734.254 34.5067 734.607 35.4333 735.261 36.1C735.914 36.7667 736.767 37.1 737.821 37.1C739.114 37.1 740.167 36.4533 740.981 35.16L741.901 35.92C741.474 36.64 740.901 37.2067 740.181 37.62C739.474 38.0333 738.681 38.24 737.801 38.24ZM737.601 28.94C736.707 28.94 735.954 29.24 735.341 29.84C734.741 30.4267 734.374 31.2267 734.241 32.24H740.601C740.574 31.1867 740.274 30.3733 739.701 29.8C739.141 29.2267 738.441 28.94 737.601 28.94ZM744.95 28.06H746.21V29.98C746.904 28.54 748.064 27.82 749.69 27.82C750.904 27.82 751.837 28.2133 752.49 29C753.144 29.7867 753.47 30.7067 753.47 31.76V38H752.13V32.06C752.13 31.22 751.924 30.5133 751.51 29.94C751.11 29.3533 750.424 29.06 749.45 29.06C748.424 29.06 747.637 29.4333 747.09 30.18C746.544 30.9133 746.27 31.8733 746.27 33.06V38H744.95V28.06ZM755.661 29.22V28.06H757.401V24.46L758.741 24V28.06H761.941V29.22H758.741V35.14C758.741 35.7533 758.868 36.2267 759.121 36.56C759.388 36.8933 759.854 37.06 760.521 37.06C761.041 37.06 761.568 36.8867 762.101 36.54L762.581 37.56C761.968 38.0133 761.261 38.24 760.461 38.24C758.421 38.24 757.401 37.2467 757.401 35.26V29.22H755.661Z" fill="#ABE8E8"/>
<path d="M855.22 34.12C855.22 35.2133 854.82 36.1733 854.02 37C853.22 37.8267 852.053 38.24 850.52 38.24C849.213 38.24 848.067 37.9933 847.08 37.5C846.107 36.9933 845.373 36.4467 844.88 35.86L845.82 34.76C846.273 35.2933 846.9 35.7933 847.7 36.26C848.5 36.7267 849.44 36.96 850.52 36.96C851.68 36.96 852.513 36.6733 853.02 36.1C853.54 35.5267 853.8 34.8933 853.8 34.2C853.8 33.4933 853.573 32.96 853.12 32.6C852.667 32.2267 851.96 31.9133 851 31.66L849.04 31.14C848.667 31.0467 848.333 30.9467 848.04 30.84C847.747 30.7333 847.427 30.58 847.08 30.38C846.747 30.18 846.467 29.96 846.24 29.72C846.027 29.4667 845.84 29.1467 845.68 28.76C845.533 28.3733 845.46 27.94 845.46 27.46C845.46 26.46 845.847 25.5933 846.62 24.86C847.393 24.1267 848.52 23.76 850 23.76C851.08 23.76 852.04 23.9667 852.88 24.38C853.72 24.7933 854.413 25.3 854.96 25.9L854 26.98C852.867 25.7 851.527 25.06 849.98 25.06C848.9 25.06 848.107 25.3 847.6 25.78C847.107 26.2467 846.86 26.78 846.86 27.38C846.86 28.1 847.08 28.64 847.52 29C847.96 29.3467 848.593 29.6267 849.42 29.84L851.6 30.4C852.787 30.6933 853.687 31.1333 854.3 31.72C854.913 32.2933 855.22 33.0933 855.22 34.12ZM858.164 23.64C858.364 23.44 858.604 23.34 858.884 23.34C859.164 23.34 859.404 23.44 859.604 23.64C859.804 23.84 859.904 24.08 859.904 24.36C859.904 24.64 859.804 24.88 859.604 25.08C859.417 25.2667 859.177 25.36 858.884 25.36C858.604 25.36 858.364 25.2667 858.164 25.08C857.977 24.88 857.884 24.64 857.884 24.36C857.884 24.08 857.977 23.84 858.164 23.64ZM858.224 28.06H859.544V38H858.224V28.06ZM861.962 29.22V28.06H863.702V24.46L865.042 24V28.06H868.242V29.22H865.042V35.14C865.042 35.7533 865.169 36.2267 865.422 36.56C865.689 36.8933 866.155 37.06 866.822 37.06C867.342 37.06 867.869 36.8867 868.402 36.54L868.882 37.56C868.269 38.0133 867.562 38.24 866.762 38.24C864.722 38.24 863.702 37.2467 863.702 35.26V29.22H861.962ZM874.961 38.24C873.454 38.24 872.254 37.7733 871.361 36.84C870.468 35.9067 870.021 34.6333 870.021 33.02C870.021 31.5 870.468 30.2533 871.361 29.28C872.268 28.3067 873.401 27.82 874.761 27.82C876.028 27.82 877.061 28.2533 877.861 29.12C878.674 29.9733 879.081 31.1067 879.081 32.52C879.081 32.8533 879.061 33.12 879.021 33.32H871.361C871.414 34.5067 871.768 35.4333 872.421 36.1C873.074 36.7667 873.928 37.1 874.981 37.1C876.274 37.1 877.328 36.4533 878.141 35.16L879.061 35.92C878.634 36.64 878.061 37.2067 877.341 37.62C876.634 38.0333 875.841 38.24 874.961 38.24ZM874.761 28.94C873.868 28.94 873.114 29.24 872.501 29.84C871.901 30.4267 871.534 31.2267 871.401 32.24H877.761C877.734 31.1867 877.434 30.3733 876.861 29.8C876.301 29.2267 875.601 28.94 874.761 28.94ZM887.918 24H889.358V36.66H896.858V38H887.918V24ZM905.598 35.84C904.878 37.44 903.625 38.24 901.838 38.24C900.825 38.24 900.031 37.9733 899.458 37.44C898.885 36.9067 898.598 36.2467 898.598 35.46C898.598 33.94 899.645 32.9133 901.738 32.38L905.558 31.38C905.531 30.6867 905.318 30.12 904.918 29.68C904.518 29.2267 903.885 29 903.018 29C901.778 29 900.611 29.66 899.518 30.98L898.598 30.22C899.078 29.58 899.698 29.02 900.458 28.54C901.231 28.06 902.105 27.82 903.078 27.82C904.358 27.82 905.305 28.1533 905.918 28.82C906.545 29.4733 906.858 30.3333 906.858 31.4V38H905.598V35.84ZM899.958 35.38C899.958 35.9 900.131 36.32 900.478 36.64C900.825 36.9467 901.345 37.1 902.038 37.1C903.038 37.1 903.871 36.7133 904.538 35.94C905.218 35.1667 905.558 34.14 905.558 32.86V32.5L902.038 33.42C900.651 33.78 899.958 34.4333 899.958 35.38ZM910.29 28.06H911.61V34.24C911.61 35.0133 911.804 35.6667 912.19 36.2C912.59 36.7333 913.264 37 914.21 37C915.21 37 915.97 36.6267 916.49 35.88C917.024 35.1333 917.29 34.18 917.29 33.02V28.06H918.61V38H917.35V36.14C916.644 37.54 915.517 38.24 913.97 38.24C912.797 38.24 911.89 37.88 911.25 37.16C910.61 36.4267 910.29 35.5467 910.29 34.52V28.06ZM922.364 28.06H923.624V29.98C924.318 28.54 925.478 27.82 927.104 27.82C928.318 27.82 929.251 28.2133 929.904 29C930.558 29.7867 930.884 30.7067 930.884 31.76V38H929.544V32.06C929.544 31.22 929.338 30.5133 928.924 29.94C928.524 29.3533 927.838 29.06 926.864 29.06C925.838 29.06 925.051 29.4333 924.504 30.18C923.958 30.9133 923.684 31.8733 923.684 33.06V38H922.364V28.06ZM933.673 33.08C933.673 31.5333 934.12 30.2733 935.013 29.3C935.92 28.3133 937.06 27.82 938.433 27.82C940.407 27.82 941.807 28.74 942.633 30.58L941.453 31.2C940.747 29.7467 939.733 29.02 938.413 29.02C937.427 29.02 936.613 29.4 935.973 30.16C935.347 30.92 935.033 31.8933 935.033 33.08C935.033 34.2533 935.347 35.2133 935.973 35.96C936.613 36.6933 937.433 37.06 938.433 37.06C939.873 37.06 940.913 36.2533 941.553 34.64L942.713 35.22C941.847 37.2333 940.413 38.24 938.413 38.24C937.027 38.24 935.887 37.7733 934.993 36.84C934.113 35.9067 933.673 34.6533 933.673 33.08ZM953.912 38H952.572V32.06C952.572 31.22 952.365 30.5133 951.952 29.94C951.552 29.3533 950.865 29.06 949.892 29.06C948.865 29.06 948.078 29.4333 947.532 30.18C946.985 30.9133 946.712 31.8733 946.712 33.06V38H945.392V23.4H946.712V29.86C947.432 28.5 948.572 27.82 950.132 27.82C951.345 27.82 952.278 28.2133 952.932 29C953.585 29.7867 953.912 30.7067 953.912 31.76V38Z" fill="#ABE8E8"/>
<rect x="130" y="108" width="141" height="2" fill="white"/>
<rect x="672" y="81" width="56" height="56" rx="28" stroke="white" stroke-width="4"/>
<rect x="873" y="81" width="56" height="56" rx="28" stroke="white" stroke-width="4"/>
<rect x="731" y="108" width="141" height="2" fill="white"/>
<rect opacity="0.02" x="422" y="31" width="156" height="156" rx="78" fill="#3B5CC4" stroke="white" stroke-width="4"/>
<rect opacity="0.1" x="437" y="46" width="126" height="126" rx="63" fill="#3B5CC4" stroke="white" stroke-width="4"/>
<rect opacity="0.4" x="452" y="61" width="96" height="96" rx="48" fill="#3B5CC4" stroke="white" stroke-width="4"/>
<rect x="330" y="108" width="141" height="2" fill="white"/>
<rect x="530" y="108" width="141" height="2" fill="white"/>
<rect x="462" y="71" width="76" height="76" rx="38" fill="#3B5CC4" stroke="white" stroke-width="4"/>
<path d="M507.639 97.0565V122.358H503.508L503.009 119.282C500.753 121.6 497.605 122.989 493.974 122.989C486.55 122.987 481 117.29 481 109.708C481 102.105 486.55 96.4542 493.974 96.4542C497.647 96.4542 500.826 97.8623 503.088 100.221L503.687 97.0565H507.639ZM502.506 109.708C502.506 104.941 499.073 101.407 494.377 101.407C489.682 101.407 486.215 104.97 486.215 109.708C486.215 114.444 489.679 118.01 494.377 118.01C499.076 118.01 502.506 114.476 502.506 109.708Z" fill="white"/>
<path d="M515.113 123C517.384 123 519.226 121.13 519.226 118.824C519.226 116.517 517.384 114.648 515.113 114.648C512.841 114.648 511 116.517 511 118.824C511 121.13 512.841 123 515.113 123Z" fill="#FF6B4A"/>
<rect width="301" height="170" fill="url(#paint0_linear)"/>
<rect x="698" width="301" height="170" fill="url(#paint1_linear)"/>
<defs>
<linearGradient id="paint0_linear" x1="-5" y1="114" x2="301" y2="114" gradientUnits="userSpaceOnUse">
<stop stop-color="#3B5CC4"/>
<stop offset="1" stop-color="#3B5CC4" stop-opacity="0"/>
</linearGradient>
<linearGradient id="paint1_linear" x1="999" y1="68" x2="698" y2="68" gradientUnits="userSpaceOnUse">
<stop stop-color="#3B5CC4"/>
<stop offset="1" stop-color="#3B5CC4" stop-opacity="0"/>
</linearGradient>
</defs>
</svg>
